{"title":"The.King.Of.Fighters.STV.480p.BRrip.XviD.Feel-Free","uid":5803637,"size":1376617244,"categoryP":"video","categoryS":"movies","magnet":"?xt=urn:btih:4916d7a98b3f7bea9b3e23ce3efbd10f00ec7556&amp;dn=The.King.Of.Fighters.STV.480p.BRrip.XviD.Feel-Free&amp;tr=udp%3A%2F%2Ftracker.openbittorrent.com%3A80&amp;tr=udp%3A%2F%2Fopen.demonii.com%3A1337&amp;tr=udp%3A%2F%2Ftracker.coppersurfer.tk%3A6969&amp;tr=udp%3A%2F%2Fexodus.desync.com%3A6969","seeders":0,"leechers":0,"uploader":"xenl","files":9,"time":1283365279,"description":"The.King.Of.Fighters.STV.480p.BRrip.XviD.Feel-Free\n\nGenre:Action | Sci-Fi\nLanguage:English\nIMDb:http://www.imdb.com/title/tt1038685/\nSource:BluRay.x264-MELiTE\nSubtitles: ROMANA\n\nGeneral\nComplete name :The.King.Of.Fighters.STV.480p.BRrip.XviD.Feel-Free\nFormat : AVI\nFormat/Info : Audio Video Interleave\nFile size : 1.28 GiB\nDuration : 1h 32mn\nOverall bit rate : 1 975 Kbps\nWriting library : VirtualDub build 32817/release\nVideo #0\nCodec ID : XVID\nCodec ID/Hint : XviD\nDuration : 1h 32mn\nBit rate : 1 517 Kbps\nWidth : 652 pixels\nHeight : 352 pixels\nDisplay aspect ratio : 1.852\nFrame rate : 23.976 fps\nResolution : 24 bits\nColorimetry : 4:2:0\nScan type : Progressive\nBits/(Pixel*Frame) : 0.276\nStream size : 1 009 MiB (77%)\nWriting library : XviD 1.2.1 (UTC 2008-12-04)\nAudio #1\nID : 1\nFormat : AC-3\nFormat/Info : Audio Coding 3\nCodec ID : 2000\nDuration : 1h 32mn\nBit rate mode : Constant\nBit rate : 448 Kbps\nChannel(s) : 6 channels\nChannel positions : Front: L C R, Surround: L R, LFE\nSampling rate : 48.0 KHz\nStream size : 298 MiB (23%)\nAlignment : Split accross interleaves\nInterleave, duration : 42 ms (1.00 video frame)\nInterleave, preload duration : 500 ms\n\nPlot\nLive-action feature based on the video game &quot;King of Fighters&quot;\n","torrent":{"xt":"urn:btih:4916d7a98b3f7bea9b3e23ce3efbd10f00ec7556","amp;dn":"The.King.Of.Fighters.STV.480p.BRrip.XviD.Feel-Free","amp;tr":["udp%3A%2F%2Ftracker.openbittorrent.com%3A80","udp%3A%2F%2Fopen.demonii.com%3A1337","udp%3A%2F%2Ftracker.coppersurfer.tk%3A6969","udp%3A%2F%2Fexodus.desync.com%3A6969"],"infoHash":"4916d7a98b3f7bea9b3e23ce3efbd10f00ec7556","infoHashBuffer":{"type":"Buffer","data":[73,22,215,169,139,63,123,234,155,62,35,206,62,251,209,15,0,236,117,86]},"announce":[],"urlList":[]}}